<svg width="32" height="32" viewBox="0 0 32 32" fill="none" xmlns="http://www.w3.org/2000/svg">
<rect width="32" height="32" rx="16" fill="#384F66"/>
<path d="M19.027 25.9447C19.027 27.0798 18.1068 28 16.9717 28H15.0285C13.8933 28 12.973 27.0797 12.973 25.9445C12.973 25.0714 12.4093 24.3135 11.6419 23.8972C11.5222 23.8323 11.4041 23.7647 11.2875 23.6945C10.534 23.2409 9.59003 23.1321 8.82688 23.5692C7.83078 24.1397 6.56099 23.7995 5.98351 22.8074L5.04383 21.1932C4.46868 20.2051 4.8088 18.9377 5.80136 18.3704C6.56132 17.936 6.93985 17.0677 6.92117 16.1925C6.91843 16.0642 6.91843 15.9358 6.92117 15.8075C6.93985 14.9323 6.56132 14.064 5.80136 13.6296C4.8088 13.0623 4.46868 11.7949 5.04383 10.8068L5.98351 9.19258C6.56099 8.20053 7.83078 7.86034 8.82688 8.43081C9.59003 8.86787 10.534 8.75911 11.2875 8.30552C11.4041 8.23532 11.5222 8.16774 11.6419 8.10282C12.4093 7.68653 12.973 6.92859 12.973 6.05554C12.973 4.9203 13.8933 4 15.0285 4H16.9715C18.1067 4 19.027 4.9203 19.027 6.05554C19.027 6.92859 19.5907 7.68653 20.3581 8.10282C20.4778 8.16774 20.5959 8.23532 20.7125 8.30552C21.466 8.75911 22.41 8.86787 23.1731 8.43081C24.1692 7.86034 25.439 8.20052 26.0165 9.19258L26.9562 10.8068C27.5313 11.7949 27.1912 13.0623 26.1986 13.6296C25.4387 14.064 25.0601 14.9323 25.0788 15.8075C25.0816 15.9358 25.0816 16.0642 25.0788 16.1925C25.0601 17.0677 25.4387 17.936 26.1986 18.3704C27.1912 18.9377 27.5313 20.2051 26.9562 21.1932L26.0165 22.8074C25.439 23.7996 24.1692 24.1399 23.1729 23.5696C22.4098 23.1329 21.4661 23.2416 20.7127 23.6949C20.5962 23.765 20.478 23.8325 20.3584 23.8974C19.5908 24.3136 19.027 25.0715 19.027 25.9447ZM14.991 24.991C14.991 25.5483 15.4427 26 16 26C16.5573 26 17.009 25.5483 17.009 24.991V23.7552C17.009 23.2949 17.3209 22.8932 17.7668 22.779C19.0098 22.4598 20.1413 21.8101 21.0389 20.9C21.362 20.5739 21.864 20.5057 22.2624 20.7337L23.3702 21.3679C23.848 21.6414 24.4569 21.4783 24.7341 21.0026C25.0142 20.5218 24.8489 19.9048 24.3659 19.6284L23.271 19.0017C22.8757 18.7754 22.6845 18.3097 22.8067 17.871C23.1484 16.6439 23.1484 15.3481 22.8067 14.121C22.6845 13.6823 22.8757 13.2166 23.271 12.9903L24.3664 12.3634C24.8491 12.0871 25.0143 11.4705 24.7344 10.9899C24.4572 10.5141 23.8479 10.3513 23.3703 10.6254L22.2595 11.2629C21.8626 11.4907 21.3622 11.4239 21.0389 11.1C20.1408 10.1913 19.0094 9.54302 17.7668 9.225C17.3204 9.10837 17.009 8.70515 17.009 8.2438V7.009C17.009 6.45174 16.5573 6 16 6C15.4427 6 14.991 6.45174 14.991 7.009V8.2448C14.991 8.70507 14.6791 9.10684 14.2332 9.221C12.9902 9.54015 11.8587 10.1899 10.9611 11.1C10.638 11.426 10.1361 11.494 9.73803 11.2655L8.62969 10.6294C8.15211 10.3553 7.54283 10.5181 7.26565 10.9939C6.98569 11.4745 7.15087 12.0911 7.63358 12.3674L8.72904 12.9943C9.12432 13.2206 9.31555 13.6863 9.19331 14.125C8.85162 15.3521 8.85162 16.6479 9.19331 17.875C9.31555 18.3137 9.12432 18.7794 8.72904 19.0057L7.63407 19.6324C7.1511 19.9088 6.98582 20.5258 7.26594 21.0066C7.54305 21.4823 8.15198 21.6454 8.62975 21.3719L9.73759 20.7377C10.136 20.5097 10.638 20.5779 10.9611 20.904C11.8592 21.8127 12.9906 22.461 14.2332 22.779C14.6791 22.8932 14.991 23.2949 14.991 23.7552V24.991ZM16 20C15.2018 20 14.4214 19.7654 13.7577 19.3259C13.094 18.8864 12.5767 18.2616 12.2712 17.5307C11.9658 16.7998 11.8858 15.9956 12.0416 15.2196C12.1973 14.4437 12.5817 13.731 13.1461 13.1716C13.7106 12.6122 14.4297 12.2312 15.2126 12.0769C15.9955 11.9225 16.807 12.0017 17.5445 12.3045C18.282 12.6072 18.9123 13.1199 19.3558 13.7777C19.7993 14.4355 20.036 15.2089 20.036 16C20.036 17.0609 19.6108 18.0783 18.8539 18.8284C18.097 19.5786 17.0704 20 16 20ZM16 14C15.6009 14 15.2107 14.1173 14.8789 14.3371C14.547 14.5568 14.2884 14.8692 14.1356 15.2346C13.9829 15.6001 13.9429 16.0022 14.0208 16.3902C14.0986 16.7781 14.2908 17.1345 14.5731 17.4142C14.8553 17.6939 15.2149 17.8844 15.6063 17.9616C15.9978 18.0387 16.4035 17.9991 16.7723 17.8478C17.141 17.6964 17.4562 17.44 17.6779 17.1111C17.8996 16.7822 18.018 16.3956 18.018 16C18.018 15.4696 17.8054 14.9609 17.4269 14.5858C17.0485 14.2107 16.5352 14 16 14Z" fill="#27AE60"/>
<mask id="path-3-outside-1_32_149" maskUnits="userSpaceOnUse" x="7" y="6" width="18" height="20" fill="black">
<rect fill="white" x="7" y="6" width="18" height="20"/>
<path d="M8.83665 10.5881V7.54545H23.1719V10.5881H17.8281V25H14.1804V10.5881H8.83665Z"/>
</mask>
<path d="M8.83665 10.5881V7.54545H23.1719V10.5881H17.8281V25H14.1804V10.5881H8.83665Z" fill="#ECF0F1"/>
<path d="M8.83665 10.5881H7.83665V11.5881H8.83665V10.5881ZM8.83665 7.54545V6.54545H7.83665V7.54545H8.83665ZM23.1719 7.54545H24.1719V6.54545H23.1719V7.54545ZM23.1719 10.5881V11.5881H24.1719V10.5881H23.1719ZM17.8281 10.5881V9.58807H16.8281V10.5881H17.8281ZM17.8281 25V26H18.8281V25H17.8281ZM14.1804 25H13.1804V26H14.1804V25ZM14.1804 10.5881H15.1804V9.58807H14.1804V10.5881ZM8.83665 10.5881H9.83665V7.54545H8.83665H7.83665V10.5881H8.83665ZM8.83665 7.54545V8.54545H23.1719V7.54545V6.54545H8.83665V7.54545ZM23.1719 7.54545H22.1719V10.5881H23.1719H24.1719V7.54545H23.1719ZM23.1719 10.5881V9.58807H17.8281V10.5881V11.5881H23.1719V10.5881ZM17.8281 10.5881H16.8281V25H17.8281H18.8281V10.5881H17.8281ZM17.8281 25V24H14.1804V25V26H17.8281V25ZM14.1804 25H15.1804V10.5881H14.1804H13.1804V25H14.1804ZM14.1804 10.5881V9.58807H8.83665V10.5881V11.5881H14.1804V10.5881Z" fill="#384F66" mask="url(#path-3-outside-1_32_149)"/>
</svg>
